<?xml version="1.0" encoding="UTF-8"?>
<!-- Generated by Bliss Online --><svg xmlns="http://www.w3.org/2000/svg" xmlns:xlink="http://www.w3.org/1999/xlink" contentScriptType="text/ecmascript" width="336.14589392036066" zoomAndPan="magnify" contentStyleType="text/css" height="336.14589392036066" preserveAspectRatio="xMidYMid meet" xml:space="preserve" version="1.0">

    
    
    
    
    
    
    
    
    
    
    
    
    
    
    
    
    
    
    
    
    
    
    
    
    
    
    
    
    
    
    
    
    <g class="translate-contents" transform="translate(11.343,56.123)"><g transform="translate(11.5, 100.755)">



        <ellipse transform="translate(-13.0 -101.69)translate(-11.5 -11.5)" style="fill:none;  fill-rule:nonzero; stroke:#000000; stroke-width:3.71; stroke-linecap:round; stroke-linejoin:miter" rx="44.55" cx="57.55" id="ellipse5848" ry="44.55" cy="146.07"/></g><g transform="translate(123.45001, 100.755)">



        <polyline id="polyline32" style="fill:none;fill-rule:nonzero;stroke:#000000;stroke-width:3.71000004;stroke-linecap:round;stroke-linejoin:bevel;stroke-miterlimit:4;stroke-dasharray:none" transform="translate(0,1.0460252)" points="-11.5,-11.5 -11.5,76.12999"/></g><g transform="translate(168.23001, 100.755)">



        <polyline id="polyline32" style="fill:none;fill-rule:nonzero;stroke:#000000;stroke-width:3.71000004;stroke-linecap:round;stroke-linejoin:bevel;stroke-miterlimit:4;stroke-dasharray:none" transform="translate(0,1.0460252)" points="-11.5,-11.5 -11.5,76.12999"/></g><g transform="translate(190.62, 123.145)">



        <ellipse transform="translate(-13.0 -102.23)translate(-11.5 -11.5)" style="fill:none;  fill-rule:nonzero; stroke:#000000; stroke-width:3.71; stroke-linecap:round; stroke-linejoin:miter" rx="22.28" cx="35.27" id="ellipse5686" ry="22.28" cy="124.53"/></g><g transform="translate(257.78998, 100.755)">



        <path xmlns:sodipodi="http://sodipodi.sourceforge.net/DTD/sodipodi-0.dtd" sodipodi:nodetypes="ccccccc" id="path3166" d="M 14.204545,124.05303 C 14.202458,117.70029 16.271619,110.51333 22.099572,106.54242 C 28.878046,101.36153 38.643617,100.78787 46.020039,105.03963 C 54.662371,108.71378 58.424792,118.93354 57.050348,128.55392 C 55.501075,137.90399 52.614993,147.13298 48.293008,155.58868 C 40.952707,169.47502 29.381032,180.87656 16.030237,189.01367 C 15.194979,189.46153 14.402202,189.97955 13.595779,190.4762" style="fill:none;fill-rule:evenodd;stroke:#070404;stroke-width:3.71000000000000000;stroke-linecap:round;stroke-linejoin:miter;stroke-opacity:1;stroke-miterlimit:4;stroke-dasharray:none" transform="translate(-13.0 -102.23)translate(-11.5 -11.5)"></path></g><g transform="translate(33.890015, 145.535)">



        <ellipse transform="translate(-13.0 -102.23)translate(-11.5 -11.5)" style="fill:none;fill-rule:nonzero;stroke:#000000;stroke-width:3.71;stroke-linecap:round;stroke-linejoin:miter;stroke-miterlimit:4;stroke-dasharray:none" rx="22.28" cx="35.27" id="ellipse5229" ry="22.28" cy="124.53"/>
        <polyline id="polyline5233" style="fill:none;fill-rule:nonzero;stroke:#000000;stroke-width:3.67564826;stroke-linecap:round;stroke-linejoin:bevel;stroke-miterlimit:4;stroke-dasharray:none" transform="matrix(1.0183247,0,0,1.000446,-1.1992027e-2,0.5525178)" points="25.619999,-5.310005 -5.3199997,25.66999"/>
        <polyline id="polyline5235" style="fill:none;fill-rule:nonzero;stroke:#000000;stroke-width:3.64723991;stroke-linecap:round;stroke-linejoin:bevel;stroke-miterlimit:4;stroke-dasharray:none" transform="matrix(1.034651,0,0,1.0000582,-0.8511126,0.5917419)" points="-5.3199997,-5.310005 25.619999,25.66999"/></g><g transform="translate(213.01001, 145.535)">



        <ellipse xmlns:sodipodi="http://sodipodi.sourceforge.net/DTD/sodipodi-0.dtd" transform="translate(-1.1479008,0.1913167)translate(-11.76 -100.41)translate(-11.5 -11.5)" style="fill:#000000;fill-rule:nonzero;stroke:#000000;stroke-width:3.71000004000000020;stroke-linecap:round;stroke-linejoin:miter;stroke-miterlimit:4;stroke-dasharray:none;fill-opacity:1" sodipodi:cx="13" cx="13" rx="1.24" sodipodi:cy="100.41" sodipodi:rx="1.24" ry="1.24" id="ellipse32" cy="100.41" sodipodi:ry="1.24"></ellipse></g></g></svg>