<?xml version="1.0" encoding="UTF-8"?>
<!-- Generated by Bliss Online --><svg xmlns="http://www.w3.org/2000/svg" xmlns:xlink="http://www.w3.org/1999/xlink" contentScriptType="text/ecmascript" width="246.58589636176694" zoomAndPan="magnify" contentStyleType="text/css" height="246.58589636176694" preserveAspectRatio="xMidYMid meet" xml:space="preserve" version="1.0">

    
    
    
    
    
    
    
    
    
    
    
    
    
    
    
    
    
    
    
    
    
    
    
    
    
    
    <g class="translate-contents" transform="translate(11.343,11.343)"><g transform="translate(11.5, 145.535)">



        <polyline style="fill:none;fill-rule:nonzero;stroke:#000000;stroke-width:3.71000000000000000;stroke-linecap:round;stroke-linejoin:bevel;stroke-miterlimit:4;stroke-dasharray:none" id="polyline36" points="-11.5,-11.5 33.05,33.109993"/>
        <polyline style="fill:none;fill-rule:nonzero;stroke:#000000;stroke-width:3.71000000000000000;stroke-linecap:round;stroke-linejoin:bevel;stroke-miterlimit:4;stroke-dasharray:none" id="polyline38" points="33.05,-11.5 -11.5,33.109993"/></g><g transform="translate(78.67001, 145.535)">



        <polyline style="fill:none;fill-rule:nonzero;stroke:#000000;stroke-width:3.71000000000000000;stroke-linecap:round;stroke-linejoin:bevel;stroke-miterlimit:4;stroke-dasharray:none" id="polyline36" points="-11.5,-11.5 33.05,33.109993"/>
        <polyline style="fill:none;fill-rule:nonzero;stroke:#000000;stroke-width:3.71000000000000000;stroke-linecap:round;stroke-linejoin:bevel;stroke-miterlimit:4;stroke-dasharray:none" id="polyline38" points="33.05,-11.5 -11.5,33.109993"/></g><g transform="translate(145.84, 100.755)">



        <path d="M 13.00 146.78 C 24.68 146.83 36.28 142.03 44.50 133.73 C 52.79 125.51 57.60 113.91 57.55 102.23" id="path36" style="fill:none;fill-rule:nonzero;stroke:#000000;stroke-width:3.71000000000000000;stroke-linecap:round;stroke-linejoin:miter;stroke-miterlimit:4;stroke-dasharray:none" transform="translate(-13.0 -102.23)translate(-11.5 -11.5)"/></g><g transform="translate(190.62, 100.755)">



        <path d="M 13.00 102.23 C 12.95 113.91 17.75 125.51 26.04 133.73 C 34.27 142.03 45.87 146.83 57.55 146.78" id="path36" style="fill:none;fill-rule:nonzero;stroke:#000000;stroke-width:3.71000000000000000;stroke-linecap:round;stroke-linejoin:miter;stroke-miterlimit:4;stroke-dasharray:none" transform="translate(-13.0 -102.23)translate(-11.5 -11.5)"/></g><g transform="translate(190.62, 100.755)">



        <polyline id="polyline32" style="fill:none;fill-rule:nonzero;stroke:#000000;stroke-width:3.71000004;stroke-linecap:round;stroke-linejoin:bevel;stroke-miterlimit:4;stroke-dasharray:none" transform="translate(0,1.0460252)" points="-11.5,-11.5 -11.5,76.12999"/></g></g></svg>