<?xml version="1.0" encoding="UTF-8"?>
<!-- Generated by Bliss Online --><svg xmlns="http://www.w3.org/2000/svg" xmlns:xlink="http://www.w3.org/1999/xlink" contentScriptType="text/ecmascript" width="246.58589636176694" zoomAndPan="magnify" contentStyleType="text/css" height="246.58589636176694" preserveAspectRatio="xMidYMid meet" xml:space="preserve" version="1.0">

    
    
    
    
    
    
    
    
    
    
    
    
    
    
    
    
    
    
    
    
    
    
    <g class="translate-contents" transform="translate(44.923,11.343)"><g transform="translate(11.5, 123.145)">



        <ellipse transform="translate(-13.0 -102.23)translate(-11.5 -11.5)" style="fill:none;  fill-rule:nonzero; stroke:#000000; stroke-width:3.71; stroke-linecap:round; stroke-linejoin:miter" rx="22.28" cx="35.27" id="ellipse5686" ry="22.28" cy="124.53"/></g><g transform="translate(11.5, 190.315)">



        <polyline id="polyline36" style="fill:none;fill-rule:nonzero;stroke:#000000;stroke-width:3.73446734;stroke-linecap:round;stroke-linejoin:bevel;stroke-miterlimit:4;stroke-dasharray:none" transform="matrix(0.9869394,0,0,1,0.4280232,0)" points="-11.5,-11.5 33.05,-11.5"/></g><g transform="translate(78.67001, 100.755)">



        <ellipse transform="translate(-13.0 -101.69)translate(-11.5 -11.5)" style="fill:none;fill-rule:nonzero;stroke:#000000;stroke-width:3.71;stroke-linecap:round;stroke-linejoin:miter;stroke-miterlimit:4;stroke-dasharray:none" rx="44.55" cx="57.55" id="ellipse5401" ry="44.55" cy="146.07"/>
        <polyline id="polyline5405" style="fill:none;fill-rule:nonzero;stroke:#000000;stroke-width:3.72791578;stroke-linecap:round;stroke-linejoin:bevel;stroke-miterlimit:4;stroke-dasharray:none" transform="matrix(1.005644,0,0,0.9848529,0.2198079,2.7220685)" points="63.989998,0.8299942 0.87000084,63.690002"/>
        <polyline id="polyline5407" style="fill:none;fill-rule:nonzero;stroke:#000000;stroke-width:3.72399945;stroke-linecap:round;stroke-linejoin:bevel;stroke-miterlimit:4;stroke-dasharray:none" transform="matrix(1.0059599,0,0,0.9866155,0.4723934,2.2849705)" points="0.87000084,0.8299942 63.989998,63.690002"/></g><g transform="translate(123.45001, 100.755)">



        <polyline id="polyline32" style="fill:none;fill-rule:nonzero;stroke:#000000;stroke-width:3.71000004;stroke-linecap:round;stroke-linejoin:bevel;stroke-miterlimit:4;stroke-dasharray:none" transform="translate(0,1.0460252)" points="-11.5,-11.5 -11.5,76.12999"/></g></g></svg>