<?xml version="1.0" encoding="UTF-8"?>
<!-- Generated by Bliss Online --><svg xmlns="http://www.w3.org/2000/svg" xmlns:xlink="http://www.w3.org/1999/xlink" contentScriptType="text/ecmascript" width="246.58589636176694" zoomAndPan="magnify" contentStyleType="text/css" height="246.58589636176694" preserveAspectRatio="xMidYMid meet" xml:space="preserve" version="1.0">

    
    
    
    
    
    
    
    
    
    
    
    
    
    
    
    
    
    
    
    
    
    
    
    
    <g class="translate-contents" transform="translate(22.489,11.343)"><g transform="translate(11.5, 100.755)">



        <path xmlns:sodipodi="http://sodipodi.sourceforge.net/DTD/sodipodi-0.dtd" sodipodi:nodetypes="ccccccccccccc" id="path3180" d="M 57.634178,123.75475 C 57.9459,116.56413 61.442026,109.52455 67.664098,105.68657 C 78.304695,98.178775 95.300193,102.82155 100.17658,115.02968 C 103.2466,121.90753 102.02654,129.78081 101.05988,137.00728 C 98.66343,150.84588 89.946301,162.46656 80.32985,172.21933 C 73.777528,179.27685 66.102867,185.26789 57.777664,190.11758 C 47.412059,184.63099 38.52268,176.79622 30.945342,167.90722 C 21.848263,158.13576 14.429867,146.08059 13.239911,132.51638 C 12.251958,123.98363 13.133227,114.16797 19.85083,108.01685 C 27.652648,100.66772 40.679796,100.026 49.043405,106.78648 C 53.983934,110.78585 57.472192,116.75475 57.566509,123.20981 L 57.634178,123.75475 L 57.634178,123.75475 z" style="fill:none;fill-rule:evenodd;stroke:#090000;stroke-width:3.71000004;stroke-linecap:round;stroke-linejoin:miter;stroke-miterlimit:4;stroke-dasharray:none;stroke-opacity:1" transform="translate(-13.0 -101.69)translate(-11.5 -11.5)"></path></g><g transform="translate(145.84, 100.755)">



        <polyline style="fill:none;fill-rule:nonzero;stroke:#000000;stroke-width:3.71000004;stroke-linecap:round;stroke-linejoin:bevel;stroke-miterlimit:4;stroke-dasharray:none" id="polyline40" points="10.77,-11.5 10.77,77.71"/>
        <path xmlns:sodipodi="http://sodipodi.sourceforge.net/DTD/sodipodi-0.dtd" sodipodi:nodetypes="ccc" id="path3190" d="M 13.1,124.44417 L 35.289544,102.16217 L 57.571543,124.53663" style="fill:none;fill-rule:evenodd;stroke:#0d0303;stroke-width:3.71000000000000000;stroke-linecap:round;stroke-linejoin:miter;stroke-opacity:1;stroke-miterlimit:4;stroke-dasharray:none" transform="translate(-13.0 -102.23)translate(-11.5 -11.5)"></path></g><g transform="translate(123.45001, 145.535)">



        <path d="M 13.00 101.69 C 12.95 113.37 17.75 124.97 26.04 133.20 C 34.27 141.49 45.87 146.30 57.55 146.25   C 69.23 146.30 80.83 141.49 89.05 133.20 C 97.35 124.97 102.15 113.37 102.10 101.69" id="path40" style="fill:none;fill-rule:nonzero;stroke:#000000;stroke-width:3.71000000000000000;stroke-linecap:round;stroke-linejoin:miter;stroke-miterlimit:4;stroke-dasharray:none" transform="translate(-13.0 -101.69)translate(-11.5 -11.5)"/></g><g transform="translate(45.085022, 55.975)">



        <polyline style="fill:none;fill-rule:nonzero;stroke:#000000;stroke-width:3.71000000000000000;stroke-linecap:round;stroke-linejoin:bevel;stroke-miterlimit:4;stroke-dasharray:none" id="polyline34" points="-11.5,10.700005 -0.37000084,-11.5"/>
        <polyline style="fill:none;fill-rule:nonzero;stroke:#000000;stroke-width:3.71000000000000000;stroke-linecap:round;stroke-linejoin:bevel;stroke-miterlimit:4;stroke-dasharray:none" id="polyline36" points="-0.37000084,-11.5 10.77,10.700005"/></g></g></svg>