<?xml version="1.0" encoding="UTF-8"?>
<!-- Generated by Bliss Online --><svg xmlns="http://www.w3.org/2000/svg" xmlns:xlink="http://www.w3.org/1999/xlink" contentScriptType="text/ecmascript" width="246.58589636176694" zoomAndPan="magnify" contentStyleType="text/css" height="246.58589636176694" preserveAspectRatio="xMidYMid meet" xml:space="preserve" version="1.0">

    <g class="translate-contents" transform="translate(33.733,11.343)"><g>
        <g id="background"/>

        <g>
            <g id="grid">
                
                
                
                
                
                
                
                
                
                
                
                
                
                
                
                
                
                
                
                </g>
            <g id="contents">
                <g class="K-4-4" transform="translate(11.5, 145.535)">
                    <path d="M 22.755491,101.68472 C 17.48568,106.5373 14.062409,113.78331 13.472191,121.36722 C 12.82295,128.94175 15.00676,136.76031 19.408107,142.58903 C 20.41991,143.94061 21.541327,145.18896 22.755491,146.31529" id="path34" style="fill:none;fill-rule:nonzero;stroke:#000000;stroke-width:3.71000000000000000;stroke-linecap:round;stroke-linejoin:miter;stroke-miterlimit:4;stroke-dasharray:none" transform="translate(-13.0 -101.74)translate(-11.5 -11.5)"/></g>
                <g class="W-4-1" transform="translate(22.695, 145.535)">
                    <polyline style="fill:none;fill-rule:nonzero;stroke:#000000;stroke-width:3.71000000000000000;stroke-linecap:round;stroke-linejoin:bevel;stroke-miterlimit:4;stroke-dasharray:none" points="-11.5,-11.5 77.6,-11.5" id="polyline40"/></g>
                <g class="W-4-1" transform="translate(22.695, 190.315)">
                    <polyline style="fill:none;fill-rule:nonzero;stroke:#000000;stroke-width:3.71000000000000000;stroke-linecap:round;stroke-linejoin:bevel;stroke-miterlimit:4;stroke-dasharray:none" points="-11.5,-11.5 77.6,-11.5" id="polyline40"/></g>
                <g class="K-4-2" transform="translate(112.255, 145.535)">
                    <path d="M 13.511315,146.32282 C 19.125428,140.92049 22.548439,133.12691 22.802345,125.1464 C 23.122075,117.17572 20.263296,109.12631 15.053551,103.30081 C 14.564548,102.73993 14.047338,102.1987 13.511315,101.67717" id="path34" style="fill:none;fill-rule:nonzero;stroke:#000000;stroke-width:3.71000004;stroke-linecap:round;stroke-linejoin:miter;stroke-miterlimit:4;stroke-dasharray:none" transform="translate(-13.0 -101.74)translate(-11.5 -11.5)"/></g>
                <g class="H-2-1" transform="translate(145.84, 123.145)">
                    <ellipse transform="translate(-13.0 -102.23)translate(-11.5 -11.5)" style="fill:none;  fill-rule:nonzero; stroke:#000000; stroke-width:3.71; stroke-linecap:round; stroke-linejoin:miter" rx="22.28" cx="35.27" cy="124.53" ry="22.28" id="ellipse5686"/></g>
                <g class="R-2-3" transform="translate(145.84, 167.92499)">
                    <polyline style="fill:none;fill-rule:nonzero;stroke:#000000;stroke-width:3.71000000000000000;stroke-linecap:round;stroke-linejoin:bevel;stroke-miterlimit:4;stroke-dasharray:none" points="-11.5,-11.5 10.77,10.799995" id="polyline36"/>
                    <polyline style="fill:none;fill-rule:nonzero;stroke:#000000;stroke-width:3.71000000000000000;stroke-linecap:round;stroke-linejoin:bevel;stroke-miterlimit:4;stroke-dasharray:none" points="10.77,10.799995 33.05,-11.5" id="polyline38"/></g>
                <g class="W-2-1" transform="translate(145.84, 190.315)">
                    <polyline id="polyline36" style="fill:none;fill-rule:nonzero;stroke:#000000;stroke-width:3.73446734;stroke-linecap:round;stroke-linejoin:bevel;stroke-miterlimit:4;stroke-dasharray:none" points="-11.5,-11.5 33.05,-11.5" transform="matrix(0.9869394,0,0,1,0.4280232,0)"/></g></g></g></g></g></svg>