<?xml version="1.0" encoding="UTF-8"?>
<!-- Generated by Bliss Online 1.5 --><svg xmlns="http://www.w3.org/2000/svg" xmlns:xlink="http://www.w3.org/1999/xlink" contentScriptType="text/ecmascript" width="246.58589636176694" zoomAndPan="magnify" contentStyleType="text/css" height="246.58589636176694" preserveAspectRatio="xMidYMid meet" xml:space="preserve" version="1.0">

    <g class="translate-contents" transform="translate(56.123,11.343)"><g>
        <g id="background"/>

        <g id="content-container">
            <g id="grid">
                
                
                
                
                
                
                
                
                
                
                
                
                
                
                
                
                
                </g>
            <g id="contents">
                <g class="H-3-1" transform="translate(0.000,89.560)">
                    <ellipse transform="translate(-13.0 -101.69)translate(-0.0 -0.0)" style="fill:none;  fill-rule:nonzero; stroke:#000000; stroke-width:3.71; stroke-linecap:round; stroke-linejoin:miter" rx="44.55" cx="57.55" id="ellipse5848" ry="44.55" cy="146.07"/></g>
                <g class="W-4-1" transform="translate(0.000,179.120)">
                    <polyline style="fill:none;fill-rule:nonzero;stroke:#000000;stroke-width:3.71000000000000000;stroke-linecap:round;stroke-linejoin:bevel;stroke-miterlimit:4;stroke-dasharray:none" id="polyline40" points="0.0,0.0 89.1,0.0"/></g>
                <g class="Y-6-1" transform="translate(111.950,134.340)">
                    <path xmlns:sodipodi="http://sodipodi.sourceforge.net/DTD/sodipodi-0.dtd" sodipodi:nodetypes="cccccccccc" id="path3194" d="M 35,102 C 27.666667,102 20.333333,102 13,102 C 13,109.33333 13,116.66667 13,124 C 17.365265,124.0214 21.730915,123.95726 26.095887,124.03196 C 29,124 31.459793,125.71527 32.981445,128.10245 C 34.16756,130.07255 35.085797,132.36923 35.021645,134.69897 C 34.8619,137.27365 34.334955,139.9733 32.65511,142.01854 C 31.687953,143.46476 30.094043,144.39047 28.540593,145.10617 C 26.377972,145.77052 24,146 21.866636,146 C 18.911091,146 15.955545,146 13,146" style="fill:none;fill-rule:evenodd;stroke:#000000;stroke-width:3.71000000000000000;stroke-linecap:round;stroke-linejoin:miter;stroke-opacity:1;stroke-miterlimit:4;stroke-dasharray:none" transform="translate(-13.0 -101.74)translate(-0.0 -0.0)"></path></g></g></g></g></g></svg>