<?xml version="1.0" encoding="UTF-8"?>
<!-- Generated by Bliss Online --><svg xmlns="http://www.w3.org/2000/svg" xmlns:xlink="http://www.w3.org/1999/xlink" contentScriptType="text/ecmascript" width="246.58589636176694" zoomAndPan="magnify" contentStyleType="text/css" height="246.58589636176694" preserveAspectRatio="xMidYMid meet" xml:space="preserve" version="1.0">

    
    
    
    
    
    
    
    
    
    
    
    
    
    
    
    
    
    
    
    
    <g class="translate-contents" transform="translate(56.123,11.343)"><g transform="translate(11.5, 100.755)">



        <ellipse transform="translate(-13.0 -101.69)translate(-11.5 -11.5)" style="fill:none;  fill-rule:nonzero; stroke:#000000; stroke-width:3.71; stroke-linecap:round; stroke-linejoin:miter" rx="44.55" cx="57.55" id="ellipse5848" ry="44.55" cy="146.07"/></g><g transform="translate(11.5, 190.315)">



        <polyline style="fill:none;fill-rule:nonzero;stroke:#000000;stroke-width:3.71000000000000000;stroke-linecap:round;stroke-linejoin:bevel;stroke-miterlimit:4;stroke-dasharray:none" id="polyline40" points="-11.5,-11.5 77.6,-11.5"/></g><g transform="translate(123.45001, 145.535)">



        <ellipse transform="translate(-13.0 -101.74)translate(-11.5 -11.5)" style="fill:none;  fill-rule:nonzero; stroke:#000000; stroke-width:3.71; stroke-linecap:round; stroke-linejoin:miter" rx="11.14" cx="24.13" id="ellipse34" ry="11.14" cy="135.04"/>
        <path d="M 35.21846,113.18537 C 35.228438,110.18125 34.031074,107.19771 31.965621,105.08866 C 29.910146,102.94874 27.016516,101.71417 24.102931,101.72446 C 21.189345,101.71417 18.295716,102.94874 16.250219,105.08866 C 14.174788,107.19771 12.977424,110.18125 12.99738,113.18537" id="path38" style="fill:none;fill-rule:nonzero;stroke:#000000;stroke-width:3.71000000000000000;stroke-linecap:round;stroke-linejoin:miter;stroke-miterlimit:4;stroke-dasharray:none" transform="translate(-13.0 -101.74)translate(-11.5 -11.5)"/>
        <polyline style="fill:none;fill-rule:nonzero;stroke:#000000;stroke-width:3.71;stroke-linecap:round;stroke-linejoin:bevel;stroke-miterlimit:4;stroke-dasharray:none" id="polyline40" points="-11.5,21.799995 -11.5,-0.40000153"/></g></g></svg>