<?xml version="1.0" encoding="UTF-8"?>
<!-- Generated by Bliss Online --><svg xmlns="http://www.w3.org/2000/svg" xmlns:xlink="http://www.w3.org/1999/xlink" contentScriptType="text/ecmascript" width="246.58589636176694" zoomAndPan="magnify" contentStyleType="text/css" height="246.58589636176694" preserveAspectRatio="xMidYMid meet" xml:space="preserve" version="1.0">

    
    
    
    
    
    
    
    
    
    
    
    
    
    
    
    
    
    
    
    
    
    
    
    
    <g class="translate-contents" transform="translate(44.923,11.343)"><g transform="translate(56.28, 145.535)">



        <ellipse transform="translate(-13.0 -102.23)translate(-11.5 -11.5)" style="fill:none;fill-rule:nonzero;stroke:#000000;stroke-width:3.71;stroke-linecap:round;stroke-linejoin:miter;stroke-miterlimit:4;stroke-dasharray:none" rx="22.28" cx="35.27" id="ellipse5229" ry="22.28" cy="124.53"/>
        <polyline id="polyline5233" style="fill:none;fill-rule:nonzero;stroke:#000000;stroke-width:3.67564826;stroke-linecap:round;stroke-linejoin:bevel;stroke-miterlimit:4;stroke-dasharray:none" transform="matrix(1.0183247,0,0,1.000446,-1.1992027e-2,0.5525178)" points="25.619999,-5.310005 -5.3199997,25.66999"/>
        <polyline id="polyline5235" style="fill:none;fill-rule:nonzero;stroke:#000000;stroke-width:3.64723991;stroke-linecap:round;stroke-linejoin:bevel;stroke-miterlimit:4;stroke-dasharray:none" transform="matrix(1.034651,0,0,1.0000582,-0.8511126,0.5917419)" points="-5.3199997,-5.310005 25.619999,25.66999"/></g><g transform="translate(11.5, 123.145)">



        <polyline style="fill:none;fill-rule:nonzero;stroke:#000000;stroke-width:3.71000000000000000;stroke-linecap:round;stroke-linejoin:bevel;stroke-miterlimit:4;stroke-dasharray:none" id="polyline40" points="-11.5,10.689995 77.6,10.689995"/>
        <polyline style="fill:none;fill-rule:nonzero;stroke:#000000;stroke-width:3.71000000000000000;stroke-linecap:round;stroke-linejoin:bevel;stroke-miterlimit:4;stroke-dasharray:none" id="polyline42" points="77.6,10.689995 55.33,-11.5"/></g><g transform="translate(11.5, 145.535)">



        <ellipse transform="translate(-13.0 -102.23)translate(-11.5 -11.5)" style="fill:none;fill-rule:nonzero;stroke:#000000;stroke-width:3.71;stroke-linecap:round;stroke-linejoin:miter;stroke-miterlimit:4;stroke-dasharray:none" rx="22.28" cx="35.27" id="ellipse5229" ry="22.28" cy="124.53"/>
        <polyline id="polyline5233" style="fill:none;fill-rule:nonzero;stroke:#000000;stroke-width:3.67564826;stroke-linecap:round;stroke-linejoin:bevel;stroke-miterlimit:4;stroke-dasharray:none" transform="matrix(1.0183247,0,0,1.000446,-1.1992027e-2,0.5525178)" points="25.619999,-5.310005 -5.3199997,25.66999"/>
        <polyline id="polyline5235" style="fill:none;fill-rule:nonzero;stroke:#000000;stroke-width:3.64723991;stroke-linecap:round;stroke-linejoin:bevel;stroke-miterlimit:4;stroke-dasharray:none" transform="matrix(1.034651,0,0,1.0000582,-0.8511126,0.5917419)" points="-5.3199997,-5.310005 25.619999,25.66999"/></g><g transform="translate(67.475006, 111.95)">



        <polyline style="fill:none;fill-rule:nonzero;stroke:#000000;stroke-width:3.71000000000000000;stroke-linecap:round;stroke-linejoin:bevel;stroke-miterlimit:4;stroke-dasharray:none" id="polyline34" points="10.77,-11.5 -11.5,10.700005"/></g><g transform="translate(134.64502, 100.755)">



        <polyline id="polyline32" style="fill:none;fill-rule:nonzero;stroke:#000000;stroke-width:3.71000004;stroke-linecap:round;stroke-linejoin:bevel;stroke-miterlimit:4;stroke-dasharray:none" transform="translate(0,1.0460252)" points="-11.5,-11.5 -11.5,76.12999"/></g><g transform="translate(123.45001, 100.755)">



        <path xmlns:sodipodi="http://sodipodi.sourceforge.net/DTD/sodipodi-0.dtd" sodipodi:nodetypes="ccccc" id="path7789" d="M 23.680893,101.94088 C 17.095926,108.63403 13.052396,118.45349 14.694741,127.8775 C 15.729626,134.40529 20.800218,140.19595 24.663007,145.47515 C 31.986689,154.19436 36.343755,165.29601 32.702388,176.42208 C 31.081971,181.85467 27.926524,186.86116 23.634514,190.57608" style="fill:none;fill-rule:evenodd;stroke:#0a0a0a;stroke-width:3.71000004;stroke-linecap:round;stroke-linejoin:miter;stroke-miterlimit:4;stroke-dasharray:none;stroke-opacity:1" transform="translate(-13.0 -101.74)translate(-11.5 -11.5)"></path></g></g></svg>