<?xml version="1.0" encoding="UTF-8"?>
<!-- Generated by Bliss Online --><svg xmlns="http://www.w3.org/2000/svg" xmlns:xlink="http://www.w3.org/1999/xlink" contentScriptType="text/ecmascript" width="246.58589636176694" zoomAndPan="magnify" contentStyleType="text/css" height="246.58589636176694" preserveAspectRatio="xMidYMid meet" xml:space="preserve" version="1.0">

    
    
    
    
    
    
    
    
    
    
    
    
    
    
    
    
    
    <g class="translate-contents" transform="translate(78.513,11.343)"><g transform="translate(56.28, 145.535)">



        <ellipse transform="translate(-13.0 -102.23)translate(-11.5 -11.5)" style="fill:none;fill-rule:nonzero;stroke:#000000;stroke-width:3.71;stroke-linecap:round;stroke-linejoin:miter;stroke-miterlimit:4;stroke-dasharray:none" rx="22.28" cx="35.27" id="ellipse5229" ry="22.28" cy="124.53"/>
        <polyline id="polyline5233" style="fill:none;fill-rule:nonzero;stroke:#000000;stroke-width:3.67564826;stroke-linecap:round;stroke-linejoin:bevel;stroke-miterlimit:4;stroke-dasharray:none" transform="matrix(1.0183247,0,0,1.000446,-1.1992027e-2,0.5525178)" points="25.619999,-5.310005 -5.3199997,25.66999"/>
        <polyline id="polyline5235" style="fill:none;fill-rule:nonzero;stroke:#000000;stroke-width:3.64723991;stroke-linecap:round;stroke-linejoin:bevel;stroke-miterlimit:4;stroke-dasharray:none" transform="matrix(1.034651,0,0,1.0000582,-0.8511126,0.5917419)" points="-5.3199997,-5.310005 25.619999,25.66999"/></g><g transform="translate(11.5, 145.535)">



        <path d="M 35.27 112.84 C 35.28 109.92 34.08 107.02 32.01 104.97 C 29.95 102.89 27.05 101.69 24.13 101.70   C 21.21 101.69 18.31 102.89 16.26 104.97 C 14.18 107.02 12.98 109.92 13.00 112.84" id="path34" style="fill:none;fill-rule:nonzero;stroke:#000000;stroke-width:3.71000000000000000;stroke-linecap:round;stroke-linejoin:miter;stroke-miterlimit:4;stroke-dasharray:none" transform="translate(-13.0 -101.74)translate(-11.5 -11.5)"/>
        <polyline style="fill:none;fill-rule:nonzero;stroke:#000000;stroke-width:3.71000000000000000;stroke-linecap:round;stroke-linejoin:bevel;stroke-miterlimit:4;stroke-dasharray:none" id="polyline36" points="10.77,-0.40000153 -11.5,32.9"/>
        <polyline style="fill:none;fill-rule:nonzero;stroke:#000000;stroke-width:3.71000000000000000;stroke-linecap:round;stroke-linejoin:bevel;stroke-miterlimit:4;stroke-dasharray:none" id="polyline38" points="-11.5,32.9 10.77,32.9"/></g></g></svg>