<?xml version="1.0" encoding="UTF-8"?>
<!-- Generated by Bliss Online --><svg xmlns="http://www.w3.org/2000/svg" xmlns:xlink="http://www.w3.org/1999/xlink" contentScriptType="text/ecmascript" width="246.58589636176694" zoomAndPan="magnify" contentStyleType="text/css" height="246.58589636176694" preserveAspectRatio="xMidYMid meet" xml:space="preserve" version="1.0">

    
    
    
    
    
    
    
    
    
    
    
    
    
    
    
    
    
    
    <g class="translate-contents" transform="translate(78.513,11.343)"><g transform="translate(11.5, 190.315)">



        <polyline style="fill:none;fill-rule:nonzero;stroke:#000000;stroke-width:3.71000000000000000;stroke-linecap:round;stroke-linejoin:bevel;stroke-miterlimit:4;stroke-dasharray:none" id="polyline40" points="-11.5,-11.5 77.6,-11.5"/></g><g transform="translate(56.28, 100.755)">



        <path d="M 13.00 190.69 C 24.71 181.98 32.71 168.48 34.71 154.02 C 36.84 139.57 32.94 124.37 24.13 112.72   C 20.97 108.51 17.21 104.74 13.00 101.58" id="path34" style="fill:none;fill-rule:nonzero;stroke:#000000;stroke-width:3.71000000000000000;stroke-linecap:round;stroke-linejoin:miter;stroke-miterlimit:4;stroke-dasharray:none" transform="translate(-13.0 -101.74)translate(-11.5 -11.5)"/></g><g transform="translate(56.28, 100.755)">



        <path d="M 13.00 191.39 C 24.68 191.44 36.28 186.63 44.50 178.34 C 52.79 170.12 57.60 158.52 57.55 146.84   C 57.60 135.16 52.79 123.56 44.50 115.33 C 36.28 107.04 24.68 102.23 13.00 102.28" id="path36" style="fill:none;fill-rule:nonzero;stroke:#000000;stroke-width:3.71000000000000000;stroke-linecap:round;stroke-linejoin:miter;stroke-miterlimit:4;stroke-dasharray:none" transform="translate(-13.0 -102.23)translate(-11.5 -11.5)"/></g></g></svg>