<?xml version="1.0" encoding="UTF-8"?>
<!-- Generated by Bliss Online --><svg xmlns="http://www.w3.org/2000/svg" xmlns:xlink="http://www.w3.org/1999/xlink" contentScriptType="text/ecmascript" width="246.58589636176694" zoomAndPan="magnify" contentStyleType="text/css" height="246.58589636176694" preserveAspectRatio="xMidYMid meet" xml:space="preserve" version="1.0">

    
    
    
    
    
    
    
    
    
    
    
    
    
    
    
    
    
    
    
    
    <g class="translate-contents" transform="translate(56.123,11.343)"><g transform="translate(11.5, 100.755)">



        <ellipse transform="translate(-13.0 -101.69)translate(-11.5 -11.5)" style="fill:none;  fill-rule:nonzero; stroke:#000000; stroke-width:3.71; stroke-linecap:round; stroke-linejoin:miter" rx="44.55" cx="57.55" id="ellipse5848" ry="44.55" cy="146.07"/></g><g transform="translate(11.5, 190.315)">



        <polyline style="fill:none;fill-rule:nonzero;stroke:#000000;stroke-width:3.71000000000000000;stroke-linecap:round;stroke-linejoin:bevel;stroke-miterlimit:4;stroke-dasharray:none" id="polyline40" points="-11.5,-11.5 77.6,-11.5"/></g><g transform="translate(123.45001, 145.535)">



        <path d="M 24.13 123.98 C 27.05 123.99 29.95 122.79 32.01 120.72 C 34.08 118.66 35.28 115.76 35.27 112.84   C 35.28 109.92 34.08 107.02 32.01 104.97 C 29.95 102.89 27.05 101.69 24.13 101.70 C 21.21 101.69 18.31 102.89 16.26 104.97   C 14.18 107.02 12.98 109.92 13.00 112.84" id="path34" style="fill:none;fill-rule:nonzero;stroke:#000000;stroke-width:3.71000000000000000;stroke-linecap:round;stroke-linejoin:miter;stroke-miterlimit:4;stroke-dasharray:none" transform="translate(-13.0 -101.74)translate(-11.5 -11.5)"/>
        <path d="M 13.00 135.04 C 12.98 137.96 14.18 140.86 16.26 142.92 C 18.31 144.99 21.21 146.19 24.13 146.18   C 27.05 146.19 29.95 144.99 32.01 142.92 C 34.08 140.86 35.28 137.96 35.27 135.04 C 35.28 132.12 34.08 129.22 32.01 127.16   C 29.95 125.09 27.05 123.89 24.13 123.90" id="path36" style="fill:none;fill-rule:nonzero;stroke:#000000;stroke-width:3.71000000000000000;stroke-linecap:round;stroke-linejoin:miter;stroke-miterlimit:4;stroke-dasharray:none" transform="translate(-13.0 -101.74)translate(-11.5 -11.5)"/></g></g></svg>