<?xml version="1.0" encoding="UTF-8"?>
<!-- Generated by Bliss Online 1.5 --><svg xmlns="http://www.w3.org/2000/svg" xmlns:xlink="http://www.w3.org/1999/xlink" contentScriptType="text/ecmascript" width="268.9858902582513" zoomAndPan="magnify" contentStyleType="text/css" height="268.9858902582513" preserveAspectRatio="xMidYMid meet" xml:space="preserve" version="1.0">

    <g class="translate-contents" transform="translate(11.343,22.543)"><g>
        <g id="background"/>

        <g id="content-container">
            <g id="grid">
                
                
                
                
                
                
                
                
                
                
                
                
                
                
                
                
                
                
                
                
                
                
                </g>
            <g id="contents">
                <g class="L-2-1" transform="translate(0.000,89.560)">
                    <path d="m 0,-6.1035156e-6 44.78,0 L 44.78,44.779994 0,44.779994 0,-6.1035156e-6 z" id="path2828" style="fill:none;stroke:#000000;stroke-width:3.70999999999999996;stroke-linecap:round;stroke-linejoin:round;stroke-opacity:1;stroke-miterlimit:4;stroke-dasharray:none" transform="translate(-0.0 6.1035157E-6)translate(-0.0 -0.0)"/></g>
                <g class="G-1-1" transform="translate(0.000,134.340)">
                    <ellipse transform="translate(-13.0 -102.23)translate(-0.0 -0.0)" style="fill:none;fill-rule:nonzero;stroke:#000000;stroke-width:3.71;stroke-linecap:round;stroke-linejoin:miter;stroke-miterlimit:4;stroke-dasharray:none" rx="22.28" cx="35.27" id="ellipse5229" ry="22.28" cy="124.53"/>
                    <polyline id="polyline5233" style="fill:none;fill-rule:nonzero;stroke:#000000;stroke-width:3.67564826;stroke-linecap:round;stroke-linejoin:bevel;stroke-miterlimit:4;stroke-dasharray:none" transform="matrix(1.0183247,0,0,1.000446,-1.1992027e-2,0.5525178)" points="37.12,6.189995 6.1800003,37.16999"/>
                    <polyline id="polyline5235" style="fill:none;fill-rule:nonzero;stroke:#000000;stroke-width:3.64723991;stroke-linecap:round;stroke-linejoin:bevel;stroke-miterlimit:4;stroke-dasharray:none" transform="matrix(1.034651,0,0,1.0000582,-0.8511126,0.5917419)" points="6.1800003,6.189995 37.12,37.16999"/></g>
                <g class="G-1-1" transform="translate(44.780,134.340)">
                    <ellipse transform="translate(-13.0 -102.23)translate(-0.0 -0.0)" style="fill:none;fill-rule:nonzero;stroke:#000000;stroke-width:3.71;stroke-linecap:round;stroke-linejoin:miter;stroke-miterlimit:4;stroke-dasharray:none" rx="22.28" cx="35.27" id="ellipse5229" ry="22.28" cy="124.53"/>
                    <polyline id="polyline5233" style="fill:none;fill-rule:nonzero;stroke:#000000;stroke-width:3.67564826;stroke-linecap:round;stroke-linejoin:bevel;stroke-miterlimit:4;stroke-dasharray:none" transform="matrix(1.0183247,0,0,1.000446,-1.1992027e-2,0.5525178)" points="37.12,6.189995 6.1800003,37.16999"/>
                    <polyline id="polyline5235" style="fill:none;fill-rule:nonzero;stroke:#000000;stroke-width:3.64723991;stroke-linecap:round;stroke-linejoin:bevel;stroke-miterlimit:4;stroke-dasharray:none" transform="matrix(1.034651,0,0,1.0000582,-0.8511126,0.5917419)" points="6.1800003,6.189995 37.12,37.16999"/></g>
                <g class="W-4-1" transform="translate(44.780,134.340)">
                    <polyline style="fill:none;fill-rule:nonzero;stroke:#000000;stroke-width:3.71000000000000000;stroke-linecap:round;stroke-linejoin:bevel;stroke-miterlimit:4;stroke-dasharray:none" id="polyline40" points="0.0,0.0 89.1,0.0"/></g>
                <g class="G-1-1" transform="translate(89.560,134.340)">
                    <ellipse transform="translate(-13.0 -102.23)translate(-0.0 -0.0)" style="fill:none;fill-rule:nonzero;stroke:#000000;stroke-width:3.71;stroke-linecap:round;stroke-linejoin:miter;stroke-miterlimit:4;stroke-dasharray:none" rx="22.28" cx="35.27" id="ellipse5229" ry="22.28" cy="124.53"/>
                    <polyline id="polyline5233" style="fill:none;fill-rule:nonzero;stroke:#000000;stroke-width:3.67564826;stroke-linecap:round;stroke-linejoin:bevel;stroke-miterlimit:4;stroke-dasharray:none" transform="matrix(1.0183247,0,0,1.000446,-1.1992027e-2,0.5525178)" points="37.12,6.189995 6.1800003,37.16999"/>
                    <polyline id="polyline5235" style="fill:none;fill-rule:nonzero;stroke:#000000;stroke-width:3.64723991;stroke-linecap:round;stroke-linejoin:bevel;stroke-miterlimit:4;stroke-dasharray:none" transform="matrix(1.034651,0,0,1.0000582,-0.8511126,0.5917419)" points="6.1800003,6.189995 37.12,37.16999"/></g>
                <g class="W-5-2" transform="translate(100.755,100.755)">
                    <polyline style="fill:none;fill-rule:nonzero;stroke:#000000;stroke-width:3.71000000000000000;stroke-linecap:round;stroke-linejoin:bevel;stroke-miterlimit:4;stroke-dasharray:none" id="polyline34" points="22.27,0.0 0.0,22.200005"/></g>
                <g class="W-5-1" transform="translate(111.950,111.950)">
                    <polyline style="fill:none;fill-rule:nonzero;stroke:#000000;stroke-width:3.71000000000000000;stroke-linecap:round;stroke-linejoin:bevel;stroke-miterlimit:4;stroke-dasharray:none" id="polyline34" points="0.0,0.0 22.27,22.200005"/></g>
                <g class="W-8-2" transform="translate(156.730,89.560)">
                    <polyline style="fill:none;fill-rule:nonzero;stroke:#000000;stroke-width:3.71000000000000000;stroke-linecap:round;stroke-linejoin:bevel;stroke-miterlimit:4;stroke-dasharray:none" id="polyline40" points="89.1,0.0 0.0,88.75"/></g>
                <g class="K-4-4" transform="translate(190.315,134.340)">
                    <path d="M 22.755491,101.68472 C 17.48568,106.5373 14.062409,113.78331 13.472191,121.36722 C 12.82295,128.94175 15.00676,136.76031 19.408107,142.58903 C 20.41991,143.94061 21.541327,145.18896 22.755491,146.31529" id="path34" style="fill:none;fill-rule:nonzero;stroke:#000000;stroke-width:3.71000000000000000;stroke-linecap:round;stroke-linejoin:miter;stroke-miterlimit:4;stroke-dasharray:none" transform="translate(-13.0 -101.74)translate(-0.0 -0.0)"/></g>
                <g class="K-4-2" transform="translate(201.510,89.560)">
                    <path d="M 13.511315,146.32282 C 19.125428,140.92049 22.548439,133.12691 22.802345,125.1464 C 23.122075,117.17572 20.263296,109.12631 15.053551,103.30081 C 14.564548,102.73993 14.047338,102.1987 13.511315,101.67717" id="path34" style="fill:none;fill-rule:nonzero;stroke:#000000;stroke-width:3.71000004;stroke-linecap:round;stroke-linejoin:miter;stroke-miterlimit:4;stroke-dasharray:none" transform="translate(-13.0 -101.74)translate(-0.0 -0.0)"/></g></g></g></g></g></svg>