<?xml version="1.0" encoding="UTF-8"?>
<!-- Generated by Bliss Online --><svg xmlns="http://www.w3.org/2000/svg" xmlns:xlink="http://www.w3.org/1999/xlink" contentScriptType="text/ecmascript" width="246.58589636176694" zoomAndPan="magnify" contentStyleType="text/css" height="246.58589636176694" preserveAspectRatio="xMidYMid meet" xml:space="preserve" version="1.0">

    
    
    
    
    
    
    
    
    
    
    
    
    
    
    
    
    
    
    
    
    <g class="translate-contents" transform="translate(67.318,11.343)"><g transform="translate(11.5, 100.755)">



        <path d="M 102.10 146.07 C 102.15 134.39 97.35 122.79 89.05 114.56 C 80.83 106.27 69.23 101.47 57.55 101.51   C 45.87 101.47 34.27 106.27 26.04 114.56 C 17.75 122.79 12.95 134.39 13.00 146.07" id="path40" style="fill:none;fill-rule:nonzero;stroke:#000000;stroke-width:3.71000000000000000;stroke-linecap:round;stroke-linejoin:miter;stroke-miterlimit:4;stroke-dasharray:none" transform="translate(-13.0 -101.69)translate(-11.5 -11.5)"/></g><g transform="translate(101.06, 100.755)">



        <polyline id="polyline32" style="fill:none;fill-rule:nonzero;stroke:#000000;stroke-width:3.71000004;stroke-linecap:round;stroke-linejoin:bevel;stroke-miterlimit:4;stroke-dasharray:none" transform="translate(0,1.0460252)" points="-11.5,-11.5 -11.5,76.12999"/></g><g transform="translate(11.5, 123.145)">



        <polyline style="fill:none;fill-rule:nonzero;stroke:#000000;stroke-width:3.71000000000000000;stroke-linecap:round;stroke-linejoin:bevel;stroke-miterlimit:4;stroke-dasharray:none" id="polyline40" points="-11.5,10.689995 77.6,10.689995"/>
        <polyline style="fill:none;fill-rule:nonzero;stroke:#000000;stroke-width:3.71000000000000000;stroke-linecap:round;stroke-linejoin:bevel;stroke-miterlimit:4;stroke-dasharray:none" id="polyline42" points="77.6,10.689995 55.33,-11.5"/>
        <polyline style="fill:none;fill-rule:nonzero;stroke:#000000;stroke-width:3.71000000000000000;stroke-linecap:round;stroke-linejoin:bevel;stroke-miterlimit:4;stroke-dasharray:none" id="polyline44" points="77.6,10.689995 55.33,32.880005"/></g><g transform="translate(45.085022, 55.975)">



        <polyline style="fill:none;fill-rule:nonzero;stroke:#000000;stroke-width:3.71000000000000000;stroke-linecap:round;stroke-linejoin:bevel;stroke-miterlimit:4;stroke-dasharray:none" id="polyline34" points="-11.5,10.700005 -0.37000084,-11.5"/>
        <polyline style="fill:none;fill-rule:nonzero;stroke:#000000;stroke-width:3.71000000000000000;stroke-linecap:round;stroke-linejoin:bevel;stroke-miterlimit:4;stroke-dasharray:none" id="polyline36" points="-0.37000084,-11.5 10.77,10.700005"/></g></g></svg>