<?xml version="1.0" encoding="UTF-8"?>
<!-- Generated by Bliss Online --><svg xmlns="http://www.w3.org/2000/svg" xmlns:xlink="http://www.w3.org/1999/xlink" contentScriptType="text/ecmascript" width="246.58589636176694" zoomAndPan="magnify" contentStyleType="text/css" height="246.58589636176694" preserveAspectRatio="xMidYMid meet" xml:space="preserve" version="1.0">

    
    
    
    
    
    
    
    
    
    
    
    
    
    
    
    
    
    
    
    <g class="translate-contents" transform="translate(78.513,11.343)"><g transform="translate(11.5, 100.755)">



        <path xmlns:sodipodi="http://sodipodi.sourceforge.net/DTD/sodipodi-0.dtd" sodipodi:nodetypes="ccccc" id="path7789" d="M 24.660507,101.94088 C 31.245474,108.63403 35.289004,118.45349 33.646659,127.8775 C 32.611774,134.40529 27.541182,140.19595 23.678393,145.47515 C 16.354711,154.19436 11.997645,165.29601 15.639012,176.42208 C 17.259429,181.85467 20.414876,186.86116 24.706886,190.57608" style="fill:none;fill-rule:evenodd;stroke:#0a0a0a;stroke-width:3.71000000000000000;stroke-linecap:round;stroke-linejoin:miter;stroke-miterlimit:4;stroke-dasharray:none;stroke-opacity:1" transform="translate(-13.0 -101.74)translate(-11.5 -11.5)"></path></g><g transform="translate(56.28, 123.145)">



        <ellipse transform="translate(-13.0 -102.23)translate(-11.5 -11.5)" style="fill:none;  fill-rule:nonzero; stroke:#000000; stroke-width:3.71; stroke-linecap:round; stroke-linejoin:miter" rx="22.28" cx="35.27" id="ellipse5686" ry="22.28" cy="124.53"/></g><g transform="translate(56.28, 190.315)">



        <polyline id="polyline36" style="fill:none;fill-rule:nonzero;stroke:#000000;stroke-width:3.73446734;stroke-linecap:round;stroke-linejoin:bevel;stroke-miterlimit:4;stroke-dasharray:none" transform="matrix(0.9869394,0,0,1,0.4280232,0)" points="-11.5,-11.5 33.05,-11.5"/></g><g transform="translate(11.5, 55.975)">



        <polyline style="fill:none;fill-rule:nonzero;stroke:#000000;stroke-width:3.71000000000000000;stroke-linecap:round;stroke-linejoin:bevel;stroke-miterlimit:4;stroke-dasharray:none" id="polyline34" points="-11.5,10.700005 -0.37000084,-11.5"/>
        <polyline style="fill:none;fill-rule:nonzero;stroke:#000000;stroke-width:3.71000000000000000;stroke-linecap:round;stroke-linejoin:bevel;stroke-miterlimit:4;stroke-dasharray:none" id="polyline36" points="-0.37000084,-11.5 10.77,10.700005"/></g></g></svg>