<?xml version="1.0" encoding="UTF-8"?>
<!-- Generated by Bliss Online 1.5 --><svg xmlns="http://www.w3.org/2000/svg" xmlns:xlink="http://www.w3.org/1999/xlink" contentScriptType="text/ecmascript" width="269.07457434028254" zoomAndPan="magnify" contentStyleType="text/css" height="269.07457434028254" preserveAspectRatio="xMidYMid meet" xml:space="preserve" version="1.0">

    <g class="translate-contents" transform="translate(11.343,22.587)"><g>
        <g id="background"/>

        <g id="content-container">
            <g id="grid">
                
                
                
                
                
                
                
                
                
                
                
                
                
                
                
                
                
                
                
                
                
                
                </g>
            <g id="contents">
                <g class="B-1-1" transform="translate(0.000,89.560)">
                    <path xmlns:sodipodi="http://sodipodi.sourceforge.net/DTD/sodipodi-0.dtd" sodipodi:nodetypes="ccccccccccccc" id="path3180" d="M 57.634178,123.75475 C 57.9459,116.56413 61.442026,109.52455 67.664098,105.68657 C 78.304695,98.178775 95.300193,102.82155 100.17658,115.02968 C 103.2466,121.90753 102.02654,129.78081 101.05988,137.00728 C 98.66343,150.84588 89.946301,162.46656 80.32985,172.21933 C 73.777528,179.27685 66.102867,185.26789 57.777664,190.11758 C 47.412059,184.63099 38.52268,176.79622 30.945342,167.90722 C 21.848263,158.13576 14.429867,146.08059 13.239911,132.51638 C 12.251958,123.98363 13.133227,114.16797 19.85083,108.01685 C 27.652648,100.66772 40.679796,100.026 49.043405,106.78648 C 53.983934,110.78585 57.472192,116.75475 57.566509,123.20981 L 57.634178,123.75475 L 57.634178,123.75475 z" style="fill:none;fill-rule:evenodd;stroke:#000000;stroke-width:3.71000004;stroke-linecap:round;stroke-linejoin:miter;stroke-miterlimit:4;stroke-dasharray:none;stroke-opacity:1" transform="translate(-13.0 -101.69)translate(-0.0 -0.0)"></path></g>
                <g class="F-1-1" transform="translate(111.950,89.560)">
                    <polyline style="fill:none;fill-rule:nonzero;stroke:#000000;stroke-width:3.71000004;stroke-linecap:round;stroke-linejoin:bevel;stroke-miterlimit:4;stroke-dasharray:none" id="polyline40" points="22.27,0.0 22.27,89.21"/>
                    <path xmlns:sodipodi="http://sodipodi.sourceforge.net/DTD/sodipodi-0.dtd" sodipodi:nodetypes="ccc" id="path3190" d="M 13.1,124.44417 L 35.289544,102.16217 L 57.571543,124.53663" style="fill:none;fill-rule:evenodd;stroke:#000000;stroke-width:3.71000000000000000;stroke-linecap:round;stroke-linejoin:miter;stroke-opacity:1;stroke-miterlimit:4;stroke-dasharray:none" transform="translate(-13.0 -102.23)translate(-0.0 -0.0)"></path></g>
                <g class="W-9-1" transform="translate(179.120,89.560)">
                    <polyline style="fill:none;fill-rule:nonzero;stroke:#000000;stroke-width:3.71000000000000000;stroke-linecap:round;stroke-linejoin:bevel;stroke-miterlimit:4;stroke-dasharray:none" id="polyline36" points="44.55,0.0 0.0,89.21"/></g>
                <g class="W-2-1" transform="translate(201.510,179.120)">
                    <polyline id="polyline36" style="fill:none;fill-rule:nonzero;stroke:#000000;stroke-width:3.73446734;stroke-linecap:round;stroke-linejoin:bevel;stroke-miterlimit:4;stroke-dasharray:none" transform="matrix(0.9869394,0,0,1,0.4280232,0)" points="0.0,0.0 44.55,0.0"/></g>
                <g class="W-4-2" transform="translate(223.900,89.560)">
                    <polyline id="polyline32" style="fill:none;fill-rule:nonzero;stroke:#000000;stroke-width:3.71000004;stroke-linecap:round;stroke-linejoin:bevel;stroke-miterlimit:4;stroke-dasharray:none" transform="translate(0,1.0460252)" points="0.0,0.0 0.0,87.62999"/></g></g></g></g></g></svg>