<?xml version="1.0" encoding="UTF-8"?>
<!-- Generated by Bliss Online --><svg xmlns="http://www.w3.org/2000/svg" xmlns:xlink="http://www.w3.org/1999/xlink" contentScriptType="text/ecmascript" width="246.58589636176694" zoomAndPan="magnify" contentStyleType="text/css" height="246.58589636176694" preserveAspectRatio="xMidYMid meet" xml:space="preserve" version="1.0">

    
    
    
    
    
    
    
    
    
    
    
    
    
    
    
    
    
    
    
    
    
    
    
    
    
    <g class="translate-contents" transform="translate(33.733,11.343)"><g transform="translate(33.890015, 123.145)">



        <ellipse transform="translate(-13.0 -102.23)translate(-11.5 -11.5)" style="fill:none;  fill-rule:nonzero; stroke:#000000; stroke-width:3.71; stroke-linecap:round; stroke-linejoin:miter" rx="22.28" cx="35.27" id="ellipse5686" ry="22.28" cy="124.53"/></g><g transform="translate(33.890015, 190.315)">



        <polyline id="polyline36" style="fill:none;fill-rule:nonzero;stroke:#000000;stroke-width:3.73446734;stroke-linecap:round;stroke-linejoin:bevel;stroke-miterlimit:4;stroke-dasharray:none" transform="matrix(0.9869394,0,0,1,0.4280232,0)" points="-11.5,-11.5 33.05,-11.5"/></g><g transform="translate(11.5, 134.34)">



        <path xmlns:sodipodi="http://sodipodi.sourceforge.net/DTD/sodipodi-0.dtd" sodipodi:nodetypes="ccccc" id="path3172" d="M 13.026532,112.62827 C 21.076528,104.27675 34.017316,100.6149 45.035822,104.7609 C 53.408706,107.6887 58.913254,115.27471 66.992529,118.7368 C 73.763226,121.97657 81.673598,122.41466 88.935319,120.45025 C 93.804123,119.06142 98.33252,116.55899 102.05051,113.11555" style="fill:none;fill-rule:evenodd;stroke:#0e0808;stroke-width:3.74398303;stroke-linecap:round;stroke-linejoin:miter;stroke-miterlimit:4;stroke-dasharray:none;stroke-opacity:1" transform="translate(-13.0 -101.69)translate(-11.5 -11.5)"></path></g><g transform="translate(123.45001, 100.755)">



        <path d="M 35.27 101.58 C 23.55 110.30 15.56 123.80 13.55 138.26 C 11.43 152.71 15.32 167.91 24.13 179.56   C 27.29 183.77 31.06 187.53 35.27 190.69" id="path34" style="fill:none;fill-rule:nonzero;stroke:#000000;stroke-width:3.71000000000000000;stroke-linecap:round;stroke-linejoin:miter;stroke-miterlimit:4;stroke-dasharray:none" transform="translate(-13.0 -101.74)translate(-11.5 -11.5)"/></g><g transform="translate(168.23001, 100.755)">



        <path d="M 13.00 190.69 C 24.71 181.98 32.71 168.48 34.71 154.02 C 36.84 139.57 32.94 124.37 24.13 112.72   C 20.97 108.51 17.21 104.74 13.00 101.58" id="path34" style="fill:none;fill-rule:nonzero;stroke:#000000;stroke-width:3.71000000000000000;stroke-linecap:round;stroke-linejoin:miter;stroke-miterlimit:4;stroke-dasharray:none" transform="translate(-13.0 -101.74)translate(-11.5 -11.5)"/></g><g transform="translate(134.64502, 123.145)">



        <ellipse transform="translate(-13.0 -102.23)translate(-11.5 -11.5)" style="fill:none;  fill-rule:nonzero; stroke:#000000; stroke-width:3.71; stroke-linecap:round; stroke-linejoin:miter" rx="22.28" cx="35.27" id="ellipse5686" ry="22.28" cy="124.53"/></g></g></svg>