<?xml version="1.0" encoding="UTF-8"?>
<!-- Generated by Bliss Online --><svg xmlns="http://www.w3.org/2000/svg" xmlns:xlink="http://www.w3.org/1999/xlink" contentScriptType="text/ecmascript" width="246.59589086860288" zoomAndPan="magnify" contentStyleType="text/css" height="246.59589086860288" preserveAspectRatio="xMidYMid meet" xml:space="preserve" version="1.0">

    
    
    
    
    
    
    
    
    
    
    
    
    
    
    
    
    
    
    
    
    
    
    
    
    
    
    
    
    
    
    
    <g class="translate-contents" transform="translate(11.343,11.348)"><g transform="translate(11.5, 145.535)">



        <polyline style="fill:none;fill-rule:nonzero;stroke:#000000;stroke-width:3.71000000000000000;stroke-linecap:round;stroke-linejoin:bevel;stroke-miterlimit:4;stroke-dasharray:none" id="polyline40" points="-11.5,-11.5 77.6,-11.5"/></g><g transform="translate(11.5, 145.535)">



        <ellipse transform="translate(-13.0 -102.23)translate(-11.5 -11.5)" style="fill:none;fill-rule:nonzero;stroke:#000000;stroke-width:3.71;stroke-linecap:round;stroke-linejoin:miter;stroke-miterlimit:4;stroke-dasharray:none" rx="22.28" cx="35.27" id="ellipse5229" ry="22.28" cy="124.53"/>
        <polyline id="polyline5233" style="fill:none;fill-rule:nonzero;stroke:#000000;stroke-width:3.67564826;stroke-linecap:round;stroke-linejoin:bevel;stroke-miterlimit:4;stroke-dasharray:none" transform="matrix(1.0183247,0,0,1.000446,-1.1992027e-2,0.5525178)" points="25.619999,-5.310005 -5.3199997,25.66999"/>
        <polyline id="polyline5235" style="fill:none;fill-rule:nonzero;stroke:#000000;stroke-width:3.64723991;stroke-linecap:round;stroke-linejoin:bevel;stroke-miterlimit:4;stroke-dasharray:none" transform="matrix(1.034651,0,0,1.0000582,-0.8511126,0.5917419)" points="-5.3199997,-5.310005 25.619999,25.66999"/></g><g transform="translate(56.28, 145.535)">



        <ellipse transform="translate(-13.0 -102.23)translate(-11.5 -11.5)" style="fill:none;fill-rule:nonzero;stroke:#000000;stroke-width:3.71;stroke-linecap:round;stroke-linejoin:miter;stroke-miterlimit:4;stroke-dasharray:none" rx="22.28" cx="35.27" id="ellipse5229" ry="22.28" cy="124.53"/>
        <polyline id="polyline5233" style="fill:none;fill-rule:nonzero;stroke:#000000;stroke-width:3.67564826;stroke-linecap:round;stroke-linejoin:bevel;stroke-miterlimit:4;stroke-dasharray:none" transform="matrix(1.0183247,0,0,1.000446,-1.1992027e-2,0.5525178)" points="25.619999,-5.310005 -5.3199997,25.66999"/>
        <polyline id="polyline5235" style="fill:none;fill-rule:nonzero;stroke:#000000;stroke-width:3.64723991;stroke-linecap:round;stroke-linejoin:bevel;stroke-miterlimit:4;stroke-dasharray:none" transform="matrix(1.034651,0,0,1.0000582,-0.8511126,0.5917419)" points="-5.3199997,-5.310005 25.619999,25.66999"/></g><g transform="translate(78.67001, 123.145)">



        <polyline style="fill:none;fill-rule:nonzero;stroke:#000000;stroke-width:3.71000000000000000;stroke-linecap:round;stroke-linejoin:bevel;stroke-miterlimit:4;stroke-dasharray:none" id="polyline34" points="-11.5,-11.5 10.77,10.700005"/></g><g transform="translate(67.475006, 111.95)">



        <polyline style="fill:none;fill-rule:nonzero;stroke:#000000;stroke-width:3.71000000000000000;stroke-linecap:round;stroke-linejoin:bevel;stroke-miterlimit:4;stroke-dasharray:none" id="polyline34" points="10.77,-11.5 -11.5,10.700005"/></g><g transform="translate(123.45001, 100.755)">



        <polyline id="polyline32" style="fill:none;fill-rule:nonzero;stroke:#000000;stroke-width:3.71000004;stroke-linecap:round;stroke-linejoin:bevel;stroke-miterlimit:4;stroke-dasharray:none" transform="translate(0,1.0460252)" points="-11.5,-11.5 -11.5,76.12999"/></g><g transform="translate(123.45001, 100.755)">



        <ellipse transform="translate(-13.0 -101.69)translate(-11.5 -11.5)" style="fill:none;  fill-rule:nonzero; stroke:#000000; stroke-width:3.71; stroke-linecap:round; stroke-linejoin:miter" rx="44.55" cx="57.55" id="ellipse5848" ry="44.55" cy="146.07"/></g><g transform="translate(213.01001, 100.755)">



        <polyline id="polyline32" style="fill:none;fill-rule:nonzero;stroke:#000000;stroke-width:3.71000004;stroke-linecap:round;stroke-linejoin:bevel;stroke-miterlimit:4;stroke-dasharray:none" transform="translate(0,1.0460252)" points="-11.5,-11.5 -11.5,76.12999"/></g><g transform="translate(168.23001, 145.535)">



        <polyline id="polyline36" style="fill:none;fill-rule:nonzero;stroke:#000000;stroke-width:3.73446734;stroke-linecap:round;stroke-linejoin:bevel;stroke-miterlimit:4;stroke-dasharray:none" transform="matrix(0.9869394,0,0,1,0.4280232,0)" points="-11.5,-11.5 33.05,-11.5"/></g><g transform="translate(168.23001, 100.755)">



        <polyline id="polyline32" style="fill:none;fill-rule:nonzero;stroke:#000000;stroke-width:3.71000004;stroke-linecap:round;stroke-linejoin:bevel;stroke-miterlimit:4;stroke-dasharray:none" transform="matrix(1,0,0,0.9958727,0,0.6028966)" points="-11.5,-11.5 -11.5,32.309998"/></g></g></svg>