<?xml version="1.0" encoding="UTF-8"?>
<!-- Generated by Bliss Online --><svg xmlns="http://www.w3.org/2000/svg" xmlns:xlink="http://www.w3.org/1999/xlink" contentScriptType="text/ecmascript" width="246.5862778314935" zoomAndPan="magnify" contentStyleType="text/css" height="246.5862778314935" preserveAspectRatio="xMidYMid meet" xml:space="preserve" version="1.0">

    
    
    
    
    
    
    
    
    
    
    
    
    
    
    
    
    
    
    
    
    
    
    
    
    
    
    
    <g class="translate-contents" transform="translate(11.343,11.343)"><g transform="translate(11.5, 134.34)">
        <path xmlns:sodipodi="http://sodipodi.sourceforge.net/DTD/sodipodi-0.dtd" sodipodi:nodetypes="ccccc" d="M 13.026532,112.62827 C 21.076528,104.27675 34.017316,100.6149 45.035822,104.7609 C 53.408706,107.6887 58.913254,115.27471 66.992529,118.7368 C 73.763226,121.97657 81.673598,122.41466 88.935319,120.45025 C 93.804123,119.06142 98.33252,116.55899 102.05051,113.11555" id="path3172" style="fill:none;fill-rule:evenodd;stroke:#000000;stroke-width:3.74398303;stroke-linecap:round;stroke-linejoin:miter;stroke-miterlimit:4;stroke-dasharray:none;stroke-opacity:1" transform="translate(-13.0 -101.69)translate(-11.5 -11.5)"></path></g><g transform="translate(11.5, 145.535)">
        <path d="M 13.00 101.69 C 12.95 113.37 17.75 124.97 26.04 133.20 C 34.27 141.49 45.87 146.30 57.55 146.25   C 69.23 146.30 80.83 141.49 89.05 133.20 C 97.35 124.97 102.15 113.37 102.10 101.69" id="path40" style="fill:none;fill-rule:nonzero;stroke:#000000;stroke-width:3.71000000000000000;stroke-linecap:round;stroke-linejoin:miter;stroke-miterlimit:4;stroke-dasharray:none" transform="translate(-13.0 -101.69)translate(-11.5 -11.5)"/></g><g transform="translate(45.085, 55.975)">
        <polyline style="fill:none;fill-rule:nonzero;stroke:#000000;stroke-width:3.71000000000000000;stroke-linecap:round;stroke-linejoin:bevel;stroke-miterlimit:4;stroke-dasharray:none" points="-11.5,10.700005 -0.37000084,-11.5" id="polyline34"/>
        <polyline style="fill:none;fill-rule:nonzero;stroke:#000000;stroke-width:3.71000000000000000;stroke-linecap:round;stroke-linejoin:bevel;stroke-miterlimit:4;stroke-dasharray:none" points="-0.37000084,-11.5 10.77,10.700005" id="polyline36"/></g><g transform="translate(123.45, 100.755)">
        <ellipse transform="translate(-13.0 -102.23)translate(-11.5 -11.5)" style="fill:none;  fill-rule:nonzero; stroke:#000000; stroke-width:3.71; stroke-linecap:round; stroke-linejoin:miter" rx="22.28" cx="35.27" cy="124.53" ry="22.28" id="ellipse5686"/></g><g transform="translate(123.45, 145.535)">
        <polyline style="fill:none;fill-rule:nonzero;stroke:#000000;stroke-width:3.71000000000000000;stroke-linecap:round;stroke-linejoin:bevel;stroke-miterlimit:4;stroke-dasharray:none" points="-11.5,-11.5 33.05,33.109993" id="polyline36"/>
        <polyline style="fill:none;fill-rule:nonzero;stroke:#000000;stroke-width:3.71000000000000000;stroke-linecap:round;stroke-linejoin:bevel;stroke-miterlimit:4;stroke-dasharray:none" points="33.05,-11.5 -11.5,33.109993" id="polyline38"/></g><g transform="translate(190.62, 100.755)">
        <polyline style="fill:none;fill-rule:nonzero;stroke:#000000;stroke-width:3.71000000000000000;stroke-linecap:round;stroke-linejoin:bevel;stroke-miterlimit:4;stroke-dasharray:none" points="-11.5,-11.5 -11.5,77.71" id="polyline36"/>
        <polyline style="fill:none;fill-rule:nonzero;stroke:#000000;stroke-width:3.71000000000000000;stroke-linecap:round;stroke-linejoin:bevel;stroke-miterlimit:4;stroke-dasharray:none" points="-11.5,77.71 33.05,77.71" id="polyline38"/>
        <polyline style="fill:none;fill-rule:nonzero;stroke:#000000;stroke-width:3.71000000000000000;stroke-linecap:round;stroke-linejoin:bevel;stroke-miterlimit:4;stroke-dasharray:none" points="33.05,77.71 33.05,-11.5" id="polyline40"/></g></g></svg>